<svg width="615.000000" height="1312.000000" viewBox="0 0 615 1312" fill="none" xmlns="http://www.w3.org/2000/svg" xmlns:xlink="http://www.w3.org/1999/xlink">
	<desc>
			Created with Pixso.
	</desc>
	<path d="M531.451 0C536.652 2.90405 542.079 5.49365 547.708 7.73462C569.432 16.3809 592.109 19.7383 615 20.7253L615 23C591.873 22.0149 568.938 18.6023 546.905 9.83813C539.949 7.0647 533.303 3.75854 527 0L531.451 0Z" fill-rule="evenodd" fill="#4862FF"/>
	<path d="M453.936 0C476.812 25.98 507.5 46.0618 542.575 57.0601C566.144 64.4507 590.481 68.0488 615 69.7844L615 72C590.288 70.2642 565.728 66.6338 541.924 59.1692C505.803 47.8386 474.271 26.9919 451 0L453.936 0Z" fill-rule="evenodd" fill="#4862FF"/>
	<path d="M402.692 0C403.332 0.905762 403.94 1.8125 404.591 2.71826C439.531 51.2737 491.018 85.0837 553.467 100.492C573.836 105.512 594.738 109.032 615 111.772L615 114C594.578 111.259 573.496 107.708 552.945 102.645C489.97 87.1101 438.057 53.0005 402.807 4.00903C401.848 2.677 400.93 1.34326 400 0L402.692 0Z" fill-rule="evenodd" fill="#4862FF"/>
	<g opacity="0.700000">
		<path d="M27.3868 1302.89C38.8541 1299.04 50.7062 1295.05 62.2504 1291.37C117.75 1273.71 180.566 1250.96 223.597 1204.33C256.077 1169.13 264.684 1122.01 273.012 1076.42C275.285 1063.94 277.636 1051.06 280.444 1038.63C287.308 1008.22 295.766 977.731 306.304 945.42C309.538 935.466 312.604 925.065 315.561 914.989C321.926 893.331 328.513 870.953 337.632 850.323C351.342 819.36 378.143 810.752 399.967 806.696C427.45 801.614 456.579 795.463 483.955 781.347C526.709 759.287 557.706 721.148 581.495 661.331C593.656 630.74 604.547 599.049 615 568L615 595.386C607.034 618.568 598.707 641.878 589.663 664.62C565.383 725.696 532.112 766.461 487.97 789.228C459.525 803.897 429.682 810.219 401.559 815.43C371.907 820.918 355.195 832.427 345.683 853.932C336.787 874.029 330.286 896.13 324.008 917.508C321.028 927.628 317.942 938.116 314.664 948.175C304.211 980.224 295.83 1010.46 289.029 1040.6C286.262 1052.86 283.936 1065.65 281.67 1078.02C273.118 1124.85 264.266 1173.28 230.046 1210.37C185.552 1258.59 121.478 1281.82 64.8965 1299.82C53.4291 1303.48 41.6094 1307.45 30.1753 1311.3C29.48 1311.53 28.7758 1311.76 28.0822 1312L0 1312C9.18256 1309.01 18.3118 1305.94 27.3868 1302.89Z" fill-rule="evenodd" fill="#4862FF"/>
	</g>
	<path d="M615 163C610.273 161.665 605.557 160.349 600.904 159.057C551.293 145.221 499.996 130.916 455.358 103.257C413.121 77.074 381.001 41.2478 350 0L352.764 0C383.315 40.4988 415.031 75.6523 456.509 101.365C500.881 128.864 552.03 143.125 601.49 156.918C605.939 158.157 610.466 159.42 615 160.693L615 163Z" fill-rule="evenodd" fill="#4862FF"/>
	<path d="M97.5428 53.0505C101.865 34.8784 108.716 16.9749 117.55 0L120.014 0C111.019 17.1133 104.053 35.2004 99.6782 53.573C86.6064 108.451 93.1384 166.982 120.846 243.353C145.419 311.062 173.395 371.217 204.008 422.151C229.157 463.996 260.226 497.87 293.122 533.733C301.626 543.016 310.428 552.61 319.041 562.277C327.98 572.298 336.88 582.649 345.49 592.66C357.537 606.675 369.999 621.149 382.717 634.964C385.182 637.622 387.691 640.422 390.26 643.284C406.511 661.36 424.928 681.838 446.759 689.594C452.732 691.709 458.836 692.799 464.917 692.799L464.928 692.799C508.335 692.777 543.844 638.318 557.095 614.902C580.985 572.683 598.611 526.767 615 481.526L615 487.967C599.156 531.446 581.977 575.396 559.005 616.002C542.306 645.507 507.876 695 464.928 695L464.917 695C458.591 695 452.232 693.889 446.032 691.688C423.667 683.741 405.06 663.038 388.639 644.77C386.067 641.916 383.561 639.129 381.106 636.469C368.356 622.635 355.893 608.139 343.825 594.124C335.226 584.112 326.328 573.772 317.406 563.752C308.807 554.105 300.005 544.512 291.501 535.24C258.53 499.292 227.385 465.341 202.13 423.304C171.444 372.242 143.404 311.959 118.777 244.111C90.9183 167.315 84.3661 108.388 97.5428 53.0505Z" fill-rule="evenodd" fill="#4862FF"/>
	<path d="M615 235C613.503 233.162 611.901 231.358 610.146 229.605C589.258 208.777 562.008 196.163 535.656 183.966C532.011 182.266 528.355 180.579 524.731 178.87C479.135 157.399 420.038 126.692 367.303 79.4792C358.227 71.3503 349.321 62.2722 339.905 52.6584C320.778 33.1648 301.236 13.2458 279 0L283.245 0C304.412 13.3308 323.13 32.4062 341.464 51.1096C350.86 60.6909 359.745 69.7388 368.767 77.8237C421.3 124.854 480.214 155.455 525.671 176.862C529.285 178.571 532.931 180.257 536.587 181.946C563.109 194.229 590.53 206.929 611.697 228.035C612.861 229.191 613.952 230.376 615 231.581L615 235Z" fill-rule="evenodd" fill="#4862FF"/>
	<path d="M130.834 64.1624C138.942 40.0298 154.633 15.7791 176.016 0L179.841 0C157.549 15.394 141.217 40.1892 132.918 64.8669C118.081 108.979 120.228 160.31 139.465 221.802C157.378 279.02 185.523 339.722 220.878 397.336C252.014 448.082 291.47 487.544 341.13 531.185C343.34 533.13 345.625 535.16 347.997 537.254C379.668 565.33 423.045 603.788 465.311 603.788L465.322 603.788C472.009 603.788 478.523 602.784 484.677 600.816C526.761 587.335 551.008 544.828 570.95 500.889C589.931 459.062 603.292 414.804 615 370.724L615 379.229C603.774 420.764 590.861 462.343 572.947 501.817C552.802 546.205 528.247 589.184 485.34 602.933C478.972 604.963 472.243 606 465.322 606C465.311 606 465.311 606 465.311 606C422.211 606 378.472 567.23 346.544 538.919C344.173 536.825 341.887 534.797 339.688 532.863C289.869 489.083 250.283 449.48 219.008 398.502C183.557 340.736 155.326 279.865 137.371 222.466C117.974 160.513 115.838 108.721 130.834 64.1624Z" fill-rule="evenodd" fill="#4862FF"/>
	<path d="M453.253 532.84L453.243 532.84C416.247 532.84 378.46 509.04 353.273 491.134C269.223 431.407 204.957 335.015 172.317 219.734C160.776 178.97 149.075 120.427 180.583 82.7039C194.709 65.8142 212.176 57.2397 232.494 57.2397C258.312 57.2397 288.868 70.9807 323.302 98.0701C373.954 137.904 427.895 172.434 478.643 203.826C481.697 205.714 484.783 207.595 487.88 209.484C508.049 221.763 528.912 234.458 544.65 252.289C566.868 277.466 572.399 310.018 573.135 332.889C573.327 339.167 573.275 346.022 572.943 353.978C563.75 412.382 549.412 471.852 507.131 511.196C491.702 525.559 473.573 532.84 453.253 532.84ZM321.956 99.8196C287.908 73.0408 257.808 59.4597 232.494 59.4597C212.849 59.4597 195.957 67.7664 182.268 84.1357C151.434 121.045 163.028 178.852 174.431 219.126C206.942 333.926 270.909 429.893 354.542 489.319C379.496 507.055 416.865 530.629 453.242 530.629L453.253 530.629C472.994 530.629 490.623 523.54 505.645 509.574C547.424 470.689 561.635 411.644 570.754 353.763C571.075 345.992 571.127 339.188 570.936 332.966C570.22 310.458 564.786 278.448 543.005 253.762C527.479 236.177 506.778 223.567 486.746 211.385C483.641 209.496 480.545 207.605 477.49 205.715C426.689 174.293 372.683 139.719 321.956 99.8196Z" fill-rule="evenodd" fill="#4862FF" fill-opacity="1.000000"/>
	<g opacity="0.800000">
		<path d="M434.975 477.682L434.963 477.682C403.465 477.682 368.05 461.805 329.709 430.489C268.593 380.607 221.134 294.634 208.79 211.481C202.738 170.641 209.783 143.938 229.749 132.118C237.545 127.506 246.471 125.167 256.282 125.167C287.022 125.167 321.605 148.262 344.497 163.541C346.953 165.185 349.29 166.745 351.501 168.196C364.131 176.493 377.264 184.574 389.96 192.4C415.99 208.438 442.908 225.02 467.379 244.516C485.445 258.907 500.423 276.055 514.527 298.478C528.12 320.099 527.298 346.814 526.561 370.388C526.497 372.353 526.445 374.296 526.391 376.229L526.338 376.815C521.864 404.63 508.508 453.808 469.386 470.667C458.601 475.323 447.016 477.671 434.975 477.682ZM465.916 462.521C501.044 447.381 513.364 401.757 517.593 375.696C517.646 373.848 517.711 371.979 517.764 370.111C518.49 346.727 519.238 322.545 507.087 303.218C493.527 281.672 479.178 265.219 461.912 251.467C437.857 232.3 411.175 215.859 385.357 199.959C372.608 192.112 359.434 183.989 346.686 175.618C344.464 174.155 342.104 172.585 339.627 170.929C317.622 156.238 284.363 134.03 256.282 134.03C248.06 134.03 240.641 135.963 234.212 139.763C213.575 151.978 213.734 184.789 217.504 210.178C229.535 291.26 275.746 375.033 335.25 423.604C371.99 453.605 405.538 468.81 434.963 468.81C445.822 468.81 456.231 466.696 465.916 462.521Z" fill-rule="evenodd" fill="#4862FF" fill-opacity="1.000000"/>
	</g>
	<path d="M458.937 366.492C450.534 397.219 428.956 403.667 412.32 403.667C396.775 403.667 378.379 397.774 361.849 387.493C340.612 374.285 322.397 355.023 309.159 331.79C302.326 319.789 280.757 278.267 290.505 248.093C293.986 237.33 302.485 231.874 315.779 231.874C337.848 231.874 367.638 247.133 378.848 252.877C405.657 266.607 467.127 305.151 458.937 366.492ZM377.852 254.852C366.756 249.171 337.31 234.084 315.774 234.084C303.548 234.084 295.755 239.029 292.604 248.777C283.134 278.085 304.338 318.882 311.067 330.69C324.123 353.603 342.082 372.589 363 385.603C379.197 395.682 397.167 401.459 412.316 401.448C428.182 401.448 448.778 395.286 456.786 366.052C464.752 306.262 404.234 268.367 377.852 254.852Z" fill-rule="evenodd" fill="#4862FF" fill-opacity="1.000000"/>
	<path d="M321.285 1272.36C349.759 1258.69 365.642 1243.19 371.253 1223.58C377.955 1200.18 371.564 1175.38 365.386 1151.41C364.701 1148.79 364.029 1146.18 363.377 1143.58C344.918 1070.01 348.84 1010.2 375.38 960.736C401.02 912.937 445.163 883.36 487.852 854.763C531.246 825.696 576.115 795.645 601.372 746.459C606.588 736.316 611.056 725.763 615 715L615 721.237C611.537 730.186 607.7 738.964 603.328 747.485C577.817 797.184 532.699 827.382 489.082 856.619C446.606 885.066 402.699 914.477 377.315 961.785C351.053 1010.74 347.193 1070.02 365.513 1143.04C366.166 1145.63 366.84 1148.23 367.511 1150.85C373.477 1173.99 380.243 1200.19 373.38 1224.18C365.75 1250.83 340.535 1265.57 322.238 1274.35C288.259 1290.64 252.475 1302.43 216.701 1312L208 1312C246.361 1302.07 284.881 1289.81 321.285 1272.36Z" fill-rule="evenodd" fill="#4862FF"/>
	<path d="M446.648 983.27C468.514 937.098 510.157 907.565 550.423 879.011C572.724 863.188 595.444 847.065 615 828L615 831.029C595.692 849.581 573.495 865.341 551.695 880.802C511.655 909.208 470.254 938.574 448.636 984.213C403.881 1078.72 501.004 1165.73 565.273 1223.3L573.068 1230.33C587.607 1243.39 602.009 1257.24 615 1272.55L615 1276C601.646 1259.99 586.709 1245.55 571.603 1231.97L563.808 1224.97C499.048 1166.95 401.188 1079.27 446.648 983.27Z" fill-rule="evenodd" fill="#4862FF"/>
	<path d="M510.154 1024.23C512.316 984.044 537.82 954.607 559.8 933.462C576.383 917.518 594.892 902.642 615 889L615 891.697C595.468 905.041 577.469 919.531 561.311 935.073C539.629 955.956 514.455 984.937 512.347 1024.36C510.431 1060.14 527.068 1090.48 541.364 1109.61C562.023 1137.27 588.87 1159.61 615 1181.14L615 1184C588.326 1162.05 560.79 1139.3 539.618 1110.93C525.099 1091.5 508.208 1060.7 510.154 1024.23Z" fill-rule="evenodd" fill="#4862FF"/>
	<defs/>
</svg>
