<svg width="37.000000" height="37.000000" viewBox="0 0 37 37" fill="currentColor" xmlns="http://www.w3.org/2000/svg" xmlns:xlink="http://www.w3.org/1999/xlink">
	<g clip-path="url(#clip2_385)">
		<path d="M31.3228 5.38496C28.9641 4.32121 26.4357 3.53496 23.7917 3.08788C23.7682 3.08336 23.7438 3.08627 23.722 3.09621C23.7002 3.10616 23.682 3.12263 23.6699 3.14338C23.3462 3.71225 22.9855 4.4538 22.7326 5.03963C19.9285 4.62066 17.0776 4.62066 14.2735 5.03963C13.9919 4.39037 13.6743 3.75731 13.3223 3.14338C13.3104 3.12238 13.2923 3.10553 13.2705 3.09506C13.2488 3.08459 13.2244 3.08101 13.2005 3.08479C10.5581 3.53188 8.02972 4.31812 5.66943 5.38342C5.64917 5.39194 5.63196 5.40646 5.62012 5.42504C0.822449 12.4782 -0.492615 19.3571 0.153381 26.1497C0.155151 26.1663 0.160339 26.1824 0.168518 26.197C0.176758 26.2116 0.187866 26.2243 0.201172 26.2345C3.0014 28.2732 6.12476 29.8263 9.44037 30.8286C9.4635 30.8357 9.48822 30.8357 9.51129 30.8286C9.53442 30.8214 9.55481 30.8075 9.56989 30.7885C10.2833 29.8344 10.9156 28.8221 11.46 27.7622C11.4675 27.7478 11.4719 27.7318 11.4727 27.7155C11.4736 27.6992 11.4709 27.6829 11.4649 27.6677C11.4589 27.6525 11.4498 27.6387 11.438 27.6274C11.4262 27.616 11.4122 27.6074 11.3967 27.6019C10.4008 27.2269 9.43585 26.7743 8.51074 26.2483C8.49414 26.2388 8.4801 26.2254 8.46997 26.2091C8.45984 26.1929 8.45392 26.1744 8.4527 26.1553C8.45148 26.1362 8.45496 26.1171 8.46295 26.0997C8.47095 26.0823 8.48315 26.0672 8.49841 26.0556C8.69263 25.9122 8.8869 25.7627 9.0719 25.6132C9.08856 25.5997 9.10864 25.5912 9.12982 25.5884C9.15106 25.5857 9.17267 25.5889 9.19214 25.5977C15.2463 28.3172 21.803 28.3172 27.7862 25.5977C27.8058 25.5884 27.8276 25.5848 27.8491 25.5872C27.8706 25.5897 27.8911 25.5981 27.908 25.6116C28.093 25.7627 28.2857 25.9122 28.4815 26.0556C28.4969 26.0669 28.5093 26.0819 28.5175 26.0991C28.5258 26.1163 28.5296 26.1354 28.5287 26.1545C28.5278 26.1736 28.5222 26.1921 28.5123 26.2085C28.5024 26.2249 28.4886 26.2386 28.4722 26.2483C27.5504 26.7787 26.5914 27.2273 25.5847 27.6004C25.5692 27.606 25.5552 27.6148 25.5434 27.6263C25.5316 27.6378 25.5225 27.6517 25.5164 27.667C25.5104 27.6823 25.5078 27.6987 25.5087 27.7152C25.5096 27.7316 25.5139 27.7476 25.5215 27.7622C26.0765 28.8214 26.7117 29.8296 27.41 30.787C27.4246 30.8066 27.4448 30.8213 27.468 30.8291C27.4911 30.8368 27.5161 30.8372 27.5396 30.8302C30.8608 29.8306 33.9893 28.2768 36.7926 26.2345C36.8063 26.2249 36.8177 26.2125 36.8263 26.1982C36.8348 26.1838 36.8401 26.1678 36.8419 26.1512C37.6128 18.298 35.55 11.4745 31.3705 5.42812C31.3604 5.40848 31.3434 5.39316 31.3228 5.38496ZM12.3649 22.0134C10.5427 22.0134 9.03955 20.3653 9.03955 18.3442C9.03955 16.3215 10.5134 14.675 12.3649 14.675C14.2303 14.675 15.7196 16.3354 15.6903 18.3442C15.6903 20.3669 14.2164 22.0134 12.3649 22.0134L12.3649 22.0134ZM24.6597 22.0134C22.8359 22.0134 21.3344 20.3653 21.3344 18.3442C21.3344 16.3215 22.8066 14.675 24.6597 14.675C26.5251 14.675 28.0143 16.3354 27.985 18.3442C27.985 20.3669 26.5267 22.0134 24.6597 22.0134L24.6597 22.0134Z" fill-rule="evenodd" />
	</g>
	<defs>
		<clipPath id="clip2_385">
			<rect width="37.000000" height="37.000000" fill="white"/>
		</clipPath>
	</defs>
</svg>
