<svg width="37.000000" height="37.000000" viewBox="0 0 37 37" fill="none" xmlns="http://www.w3.org/2000/svg" xmlns:xlink="http://www.w3.org/1999/xlink">
	<desc>
			Created with Pixso.
	</desc>
	<mask id="path-1-inside-1" fill="white">
		<path d="M18.5 37C28.712 37 37 28.712 37 18.5C37 8.288 28.712 0 18.5 0C8.28802 0 0 8.288 0 18.5C0 28.712 8.28802 37 18.5 37ZM30.562 20.5348L30.562 21.7188C30.562 21.7928 30.525 21.8298 30.451 21.8668C30.081 22.0148 28.786 22.6068 28.268 23.3468C26.899 25.2338 25.863 27.9348 23.569 27.9348L13.949 27.9348C10.545 27.9348 7.77002 25.1598 7.77002 21.7188L7.77002 21.6078C7.77002 21.5338 7.84399 21.4598 7.91803 21.4598L13.32 21.4598C13.431 21.4598 13.505 21.5708 13.505 21.6448C13.468 21.9778 13.542 22.3478 13.69 22.6808C14.023 23.3468 14.689 23.7168 15.392 23.7168L18.056 23.7168L18.056 21.6448L15.429 21.6448C15.281 21.6448 15.207 21.4968 15.281 21.3858C15.318 21.3488 15.355 21.3118 15.392 21.2378C15.651 20.8678 15.984 20.3498 16.354 19.7208C16.613 19.3138 16.835 18.8328 17.02 18.3888C17.057 18.3148 17.094 18.2408 17.131 18.1298C17.168 17.9818 17.242 17.8338 17.279 17.7228L17.39 17.3898C17.464 17.0198 17.501 16.6128 17.501 16.1688C17.501 16.0208 17.501 15.8358 17.464 15.6508C17.464 15.4658 17.427 15.2808 17.427 15.0958C17.427 14.9478 17.39 14.7628 17.353 14.6148C17.316 14.3558 17.279 14.1338 17.205 13.8748L17.168 13.8008C17.131 13.6528 17.094 13.4678 17.02 13.3198C16.872 12.8018 16.687 12.2838 16.502 11.8398L16.28 11.2848C16.169 11.0258 16.058 10.7668 15.947 10.5448C15.91 10.4338 15.836 10.3598 15.799 10.2488C15.762 10.1378 15.688 10.0268 15.651 9.91579L15.54 9.69379L15.207 9.1018C15.17 9.02779 15.244 8.91679 15.318 8.9538L17.353 9.5088L17.612 9.58279L17.908 9.6568L18.019 9.69379L18.019 8.47279C18.019 7.8808 18.5 7.3998 19.055 7.3998C19.351 7.3998 19.61 7.5108 19.795 7.69579C19.98 7.8808 20.091 8.13979 20.091 8.43579L20.091 10.2118L20.313 10.2858C20.313 10.2858 20.35 10.2858 20.35 10.3228C20.387 10.3598 20.461 10.4338 20.572 10.5078C20.646 10.5818 20.72 10.6558 20.831 10.7298C21.016 10.8778 21.275 11.0998 21.534 11.3218C21.608 11.3958 21.682 11.4328 21.719 11.5068C22.052 11.8028 22.422 12.1728 22.792 12.5798C22.903 12.6908 22.977 12.8018 23.088 12.9128C23.199 13.0238 23.273 13.1718 23.384 13.2828C23.495 13.4308 23.643 13.6158 23.754 13.7638C23.791 13.8378 23.865 13.9118 23.902 14.0228C24.05 14.2448 24.161 14.4668 24.309 14.6888C24.346 14.7998 24.42 14.9108 24.457 15.0218C24.605 15.3178 24.716 15.6138 24.753 15.9468C24.79 16.0208 24.79 16.0948 24.79 16.1318C24.827 16.2058 24.827 16.3168 24.827 16.4278C24.8622 16.7441 24.8306 17.027 24.7956 17.3399C24.7938 17.3564 24.7919 17.3731 24.79 17.3898C24.753 17.5378 24.716 17.6488 24.679 17.7968C24.642 17.9078 24.605 18.0558 24.531 18.2038C24.42 18.4628 24.272 18.7218 24.124 18.9808C24.087 19.0548 24.013 19.1658 23.939 19.2768C23.865 19.3878 23.791 19.4618 23.754 19.5728C23.68 19.6838 23.569 19.7948 23.495 19.9058C23.421 20.0168 23.347 20.1278 23.236 20.2388C23.125 20.3868 22.977 20.5348 22.866 20.6828C22.792 20.7568 22.718 20.8678 22.607 20.9418C22.533 21.0158 22.459 21.1268 22.348 21.2008C22.237 21.3118 22.126 21.4228 22.015 21.4968L21.793 21.6818C21.756 21.7188 21.719 21.7188 21.682 21.7188L20.054 21.7188L20.054 23.7908L22.089 23.7908C22.533 23.7908 22.977 23.6428 23.31 23.3468C23.421 23.2358 23.939 22.7918 24.568 22.1258C24.605 22.0888 24.605 22.0888 24.642 22.0888L30.377 20.3498C30.488 20.3128 30.562 20.4238 30.562 20.5348ZM9.13892 19.129L9.21289 19.018L14.0229 11.507C14.0969 11.396 14.2449 11.396 14.3189 11.544C15.1329 13.357 15.799 15.577 15.5029 16.983C15.3549 17.575 14.9849 18.352 14.5409 19.055C14.5039 19.166 14.4299 19.277 14.3559 19.351C14.3189 19.388 14.2819 19.425 14.2079 19.425L9.24994 19.425C9.13892 19.388 9.06494 19.24 9.13892 19.129Z" fill-rule="evenodd" fill-opacity="0.000000"/>
	</mask>
	<path d="M18.5 37C28.712 37 37 28.712 37 18.5C37 8.288 28.712 0 18.5 0C8.28802 0 0 8.288 0 18.5C0 28.712 8.28802 37 18.5 37ZM30.562 20.5348L30.562 21.7188C30.562 21.7928 30.525 21.8298 30.451 21.8668C30.081 22.0148 28.786 22.6068 28.268 23.3468C26.899 25.2338 25.863 27.9348 23.569 27.9348L13.949 27.9348C10.545 27.9348 7.77002 25.1598 7.77002 21.7188L7.77002 21.6078C7.77002 21.5338 7.84399 21.4598 7.91803 21.4598L13.32 21.4598C13.431 21.4598 13.505 21.5708 13.505 21.6448C13.468 21.9778 13.542 22.3478 13.69 22.6808C14.023 23.3468 14.689 23.7168 15.392 23.7168L18.056 23.7168L18.056 21.6448L15.429 21.6448C15.281 21.6448 15.207 21.4968 15.281 21.3858C15.318 21.3488 15.355 21.3118 15.392 21.2378C15.651 20.8678 15.984 20.3498 16.354 19.7208C16.613 19.3138 16.835 18.8328 17.02 18.3888C17.057 18.3148 17.094 18.2408 17.131 18.1298C17.168 17.9818 17.242 17.8338 17.279 17.7228L17.39 17.3898C17.464 17.0198 17.501 16.6128 17.501 16.1688C17.501 16.0208 17.501 15.8358 17.464 15.6508C17.464 15.4658 17.427 15.2808 17.427 15.0958C17.427 14.9478 17.39 14.7628 17.353 14.6148C17.316 14.3558 17.279 14.1338 17.205 13.8748L17.168 13.8008C17.131 13.6528 17.094 13.4678 17.02 13.3198C16.872 12.8018 16.687 12.2838 16.502 11.8398L16.28 11.2848C16.169 11.0258 16.058 10.7668 15.947 10.5448C15.91 10.4338 15.836 10.3598 15.799 10.2488C15.762 10.1378 15.688 10.0268 15.651 9.91579L15.54 9.69379L15.207 9.1018C15.17 9.02779 15.244 8.91679 15.318 8.9538L17.353 9.5088L17.612 9.58279L17.908 9.6568L18.019 9.69379L18.019 8.47279C18.019 7.8808 18.5 7.3998 19.055 7.3998C19.351 7.3998 19.61 7.5108 19.795 7.69579C19.98 7.8808 20.091 8.13979 20.091 8.43579L20.091 10.2118L20.313 10.2858C20.313 10.2858 20.35 10.2858 20.35 10.3228C20.387 10.3598 20.461 10.4338 20.572 10.5078C20.646 10.5818 20.72 10.6558 20.831 10.7298C21.016 10.8778 21.275 11.0998 21.534 11.3218C21.608 11.3958 21.682 11.4328 21.719 11.5068C22.052 11.8028 22.422 12.1728 22.792 12.5798C22.903 12.6908 22.977 12.8018 23.088 12.9128C23.199 13.0238 23.273 13.1718 23.384 13.2828C23.495 13.4308 23.643 13.6158 23.754 13.7638C23.791 13.8378 23.865 13.9118 23.902 14.0228C24.05 14.2448 24.161 14.4668 24.309 14.6888C24.346 14.7998 24.42 14.9108 24.457 15.0218C24.605 15.3178 24.716 15.6138 24.753 15.9468C24.79 16.0208 24.79 16.0948 24.79 16.1318C24.827 16.2058 24.827 16.3168 24.827 16.4278C24.8622 16.7441 24.8306 17.027 24.7956 17.3399C24.7938 17.3564 24.7919 17.3731 24.79 17.3898C24.753 17.5378 24.716 17.6488 24.679 17.7968C24.642 17.9078 24.605 18.0558 24.531 18.2038C24.42 18.4628 24.272 18.7218 24.124 18.9808C24.087 19.0548 24.013 19.1658 23.939 19.2768C23.865 19.3878 23.791 19.4618 23.754 19.5728C23.68 19.6838 23.569 19.7948 23.495 19.9058C23.421 20.0168 23.347 20.1278 23.236 20.2388C23.125 20.3868 22.977 20.5348 22.866 20.6828C22.792 20.7568 22.718 20.8678 22.607 20.9418C22.533 21.0158 22.459 21.1268 22.348 21.2008C22.237 21.3118 22.126 21.4228 22.015 21.4968L21.793 21.6818C21.756 21.7188 21.719 21.7188 21.682 21.7188L20.054 21.7188L20.054 23.7908L22.089 23.7908C22.533 23.7908 22.977 23.6428 23.31 23.3468C23.421 23.2358 23.939 22.7918 24.568 22.1258C24.605 22.0888 24.605 22.0888 24.642 22.0888L30.377 20.3498C30.488 20.3128 30.562 20.4238 30.562 20.5348ZM9.13892 19.129L9.21289 19.018L14.0229 11.507C14.0969 11.396 14.2449 11.396 14.3189 11.544C15.1329 13.357 15.799 15.577 15.5029 16.983C15.3549 17.575 14.9849 18.352 14.5409 19.055C14.5039 19.166 14.4299 19.277 14.3559 19.351C14.3189 19.388 14.2819 19.425 14.2079 19.425L9.24994 19.425C9.13892 19.388 9.06494 19.24 9.13892 19.129Z" fill-rule="evenodd" fill="#000000" fill-opacity="1.000000"/>
	<defs/>
</svg>
