<svg width="37.000000" height="37.000000" viewBox="0 0 37 37" fill="none" xmlns="http://www.w3.org/2000/svg" xmlns:xlink="http://www.w3.org/1999/xlink">
	<desc>
			Created with Pixso.
	</desc>
	<g clip-path="url(#clip2_384)">
		<path d="M36.4496 7.61121C35.1624 8.18163 33.7795 8.56705 32.3257 8.74125C33.8257 7.84368 34.948 6.43102 35.483 4.76684C34.0737 5.60394 32.5312 6.19318 30.9228 6.50892C29.8411 5.354 28.4084 4.5885 26.8471 4.33128C25.2858 4.07404 23.6833 4.33947 22.2883 5.08635C20.8933 5.83323 19.7839 7.01977 19.1324 8.46175C18.4808 9.90374 18.3235 11.5205 18.6851 13.061C15.8294 12.9176 13.0358 12.1754 10.4856 10.8825C7.93536 9.58957 5.68549 7.77487 3.88196 5.55617C3.26526 6.61992 2.91071 7.85325 2.91071 9.16675C2.91003 10.3492 3.20123 11.5135 3.75842 12.5565C4.31567 13.5994 5.1217 14.4886 6.10504 15.1453C4.96466 15.109 3.84937 14.8009 2.85211 14.2465L2.85211 14.339C2.85199 15.9975 3.42566 17.6049 4.47577 18.8885C5.52588 20.1721 6.98773 21.0529 8.61334 21.3814C7.55542 21.6677 6.44629 21.7099 5.36969 21.5047C5.82831 22.9317 6.72168 24.1795 7.92474 25.0736C9.12787 25.9676 10.5804 26.463 12.079 26.4905C9.53497 28.4876 6.39313 29.5708 3.15894 29.5661C2.586 29.5662 2.01355 29.5328 1.44458 29.4659C4.72754 31.5767 8.54913 32.6969 12.4521 32.6926C25.6642 32.6926 32.8868 21.7498 32.8868 12.2593C32.8868 11.951 32.8792 11.6396 32.8653 11.3313C34.2702 10.3153 35.4829 9.05713 36.4466 7.61584L36.4496 7.61121L36.4496 7.61121Z" fill-rule="evenodd" fill="#000000"/>
	</g>
	<defs>
		<clipPath id="clip2_384">
			<rect width="37.000000" height="37.000000" fill="white"/>
		</clipPath>
	</defs>
</svg>
