<svg width="37.000000" height="37.000000" viewBox="0 0 37 37" fill="none" xmlns="http://www.w3.org/2000/svg" xmlns:xlink="http://www.w3.org/1999/xlink">
	<desc>
			Created with Pixso.
	</desc>
	<path d="M10.8729 0.111C12.8457 0.0201797 13.4747 0 18.5 0C23.5253 0 24.1543 0.0218658 26.1254 0.111C28.0964 0.200134 29.4419 0.514633 30.6191 0.970406C31.8519 1.43627 32.9703 2.1645 33.8954 3.10632C34.8372 4.02963 35.5637 5.14636 36.028 6.38082C36.4854 7.55809 36.7982 8.90355 36.889 10.8713C36.9799 12.8474 37 13.4764 37 18.5C37 23.5253 36.9781 24.1543 36.889 26.127C36.7999 28.0948 36.4854 29.4402 36.028 30.6175C35.5637 31.8521 34.8359 32.9707 33.8954 33.8954C32.9703 34.8372 31.8519 35.5637 30.6191 36.0279C29.4419 36.4854 28.0964 36.7982 26.1288 36.889C24.1543 36.9798 23.5253 37 18.5 37C13.4747 37 12.8457 36.9781 10.8729 36.889C8.90527 36.7999 7.55981 36.4854 6.38245 36.0279C5.14795 35.5637 4.0293 34.8359 3.10461 33.8954C2.16345 32.9715 1.43518 31.8534 0.970459 30.6192C0.514648 29.4419 0.201782 28.0965 0.110962 26.1287C0.0201416 24.1526 0 23.5236 0 18.5C0 13.4747 0.0218506 12.8457 0.110962 10.8746C0.200195 8.90355 0.514648 7.55809 0.970459 6.38082C1.43579 5.1465 2.16467 4.02848 3.10632 3.10464C4.02966 2.16366 5.14722 1.43533 6.38086 0.970406C7.55811 0.514633 8.90356 0.20182 10.8712 0.111L10.8729 0.111ZM25.9757 3.441C24.0248 3.35186 23.4395 3.33337 18.5 3.33337C13.5605 3.33337 12.9752 3.35186 11.0243 3.441C9.21973 3.52341 8.24097 3.82446 7.58838 4.07841C6.72559 4.41477 6.1084 4.81336 5.46082 5.46086C4.84705 6.058 4.37476 6.78493 4.07837 7.58836C3.82446 8.24091 3.52344 9.21973 3.44104 11.0243C3.35181 12.9752 3.33337 13.5605 3.33337 18.5C3.33337 23.4395 3.35181 24.0248 3.44104 25.9757C3.52344 27.7803 3.82446 28.7591 4.07837 29.4116C4.37439 30.2139 4.84705 30.9421 5.46082 31.5391C6.05786 32.153 6.78613 32.6256 7.58838 32.9216C8.24097 33.1755 9.21973 33.4766 11.0243 33.559C12.9752 33.6481 13.5588 33.6666 18.5 33.6666C23.4412 33.6666 24.0248 33.6481 25.9757 33.559C27.7803 33.4766 28.759 33.1755 29.4116 32.9216C30.2744 32.5852 30.8916 32.1866 31.5392 31.5391C32.153 30.9421 32.6256 30.2139 32.9216 29.4116C33.1755 28.7591 33.4766 27.7803 33.559 25.9757C33.6482 24.0248 33.6666 23.4395 33.6666 18.5C33.6666 13.5605 33.6482 12.9752 33.559 11.0243C33.4766 9.21973 33.1755 8.24091 32.9216 7.58836C32.5852 6.72559 32.1866 6.10837 31.5392 5.46086C30.942 4.84712 30.2151 4.37476 29.4116 4.07841C28.759 3.82446 27.7803 3.52341 25.9757 3.441L25.9757 3.441ZM16.1371 24.203C17.4567 24.7524 18.9261 24.8265 20.2944 24.4128C21.6626 23.9991 22.8448 23.1232 23.639 21.9347C24.4331 20.7462 24.79 19.3188 24.6488 17.8964C24.5076 16.474 23.8768 15.1447 22.8644 14.1357C22.2189 13.4907 21.4385 12.9968 20.5793 12.6896C19.7201 12.3824 18.8035 12.2695 17.8954 12.359C16.9873 12.4486 16.1104 12.7384 15.3278 13.2075C14.5452 13.6767 13.8762 14.3135 13.3693 15.0722C12.8623 15.8309 12.5299 16.6925 12.3959 17.5951C12.2618 18.4977 12.3297 19.4188 12.5944 20.292C12.859 21.1652 13.3141 21.9689 13.9266 22.6452C14.5393 23.3215 15.2942 23.8535 16.1371 24.203ZM11.7761 11.7761C12.6591 10.8931 13.7074 10.1927 14.8611 9.71479C16.0148 9.23692 17.2512 8.99096 18.5 8.99096C19.7488 8.99096 20.9852 9.23692 22.1389 9.71479C23.2926 10.1927 24.3409 10.8931 25.2239 11.7761C26.1069 12.6591 26.8074 13.7074 27.2852 14.861C27.7631 16.0147 28.009 17.2513 28.009 18.5C28.009 19.7487 27.7631 20.9853 27.2852 22.139C26.8074 23.2926 26.1069 24.3409 25.2239 25.2239C23.4407 27.0072 21.022 28.009 18.5 28.009C15.978 28.009 13.5593 27.0072 11.7761 25.2239C9.9928 23.4406 8.99097 21.022 8.99097 18.5C8.99097 15.978 9.9928 13.5594 11.7761 11.7761L11.7761 11.7761ZM30.118 10.4071C30.3368 10.2007 30.512 9.95246 30.6332 9.67714C30.7543 9.40181 30.819 9.10497 30.8234 8.8042C30.8278 8.50343 30.7717 8.20483 30.6587 7.92609C30.5455 7.64735 30.3777 7.39413 30.165 7.18143C29.9523 6.96873 29.6991 6.80087 29.4204 6.68778C29.1416 6.57469 28.843 6.51868 28.5422 6.52307C28.2415 6.52746 27.9447 6.59215 27.6693 6.71331C27.394 6.83447 27.1458 7.00964 26.9393 7.22845C26.538 7.65401 26.3181 8.21925 26.3267 8.8042C26.3352 9.38915 26.5714 9.94775 26.985 10.3614C27.3987 10.7751 27.9573 11.0112 28.5422 11.0198C29.1272 11.0283 29.6925 10.8085 30.118 10.4071L30.118 10.4071Z" fill-rule="evenodd" fill="#000000"/>
	<defs/>
</svg>
