<svg width="34.916626" height="24.742767" viewBox="0 0 34.9166 24.7428" fill="none" xmlns="http://www.w3.org/2000/svg" xmlns:xlink="http://www.w3.org/1999/xlink">
	<desc>
			Created with Pixso.
	</desc>
	<path d="M30.7089 1.20916C32.1691 1.60003 33.3167 2.74753 33.7075 4.20772C34.4138 6.85169 34.4166 12.3714 34.4166 12.3714C34.4166 12.3714 34.4166 17.8911 33.7075 20.5351C33.3167 21.9953 32.1691 23.1428 30.7089 23.5336C28.0649 24.2428 17.4583 24.2428 17.4583 24.2428C17.4583 24.2428 6.85168 24.2428 4.20776 23.5336C2.74756 23.1428 1.59998 21.9953 1.20911 20.5351C0.5 17.8911 0.5 12.3714 0.5 12.3714C0.5 12.3714 0.5 6.85169 1.20911 4.20772C1.59998 2.74753 2.74756 1.60003 4.20776 1.20916C6.85168 0.5 17.4583 0.5 17.4583 0.5C17.4583 0.5 28.0649 0.5 30.7089 1.20916ZM22.8749 12.3719L14.0634 17.4587L14.0634 7.28489L22.8749 12.3719Z" fill-rule="evenodd" fill="#000000"/>
	<path d="M30.7089 1.20916C28.0649 0.5 17.4583 0.5 17.4583 0.5C17.4583 0.5 6.85168 0.5 4.20776 1.20916C2.74756 1.60003 1.59998 2.74753 1.20911 4.20772C0.5 6.85169 0.5 12.3714 0.5 12.3714C0.5 12.3714 0.5 17.8911 1.20911 20.5351C1.59998 21.9953 2.74756 23.1428 4.20776 23.5336C6.85168 24.2428 17.4583 24.2428 17.4583 24.2428C17.4583 24.2428 28.0649 24.2428 30.7089 23.5336C32.1691 23.1428 33.3167 21.9953 33.7075 20.5351C34.4166 17.8911 34.4166 12.3714 34.4166 12.3714C34.4166 12.3714 34.4138 6.85169 33.7075 4.20772C33.3167 2.74753 32.1691 1.60003 30.7089 1.20916ZM22.8749 12.3719L14.0634 7.28489L14.0634 17.4587L22.8749 12.3719Z" stroke="#000000" stroke-linejoin="round"/>
	<defs/>
</svg>
